<svg width="18" height="18" viewBox="0 0 18 18" fill="none" xmlns="http://www.w3.org/2000/svg">
<path d="M17.9995 9.19972C17.9995 8.45973 17.9382 7.91973 17.8056 7.35974H9.18323V10.6997H14.2444C14.1424 11.5297 13.5914 12.7797 12.3669 13.6197L12.3497 13.7315L15.0759 15.8012L15.2648 15.8197C16.9995 14.2497 17.9995 11.9397 17.9995 9.19972Z" fill="#4285F4"/>
<path d="M9.18219 18C11.6617 18 13.7433 17.1999 15.2638 15.8199L12.3658 13.6199C11.5903 14.1499 10.5495 14.5199 9.18219 14.5199C6.75365 14.5199 4.69246 12.9499 3.9577 10.7799L3.85 10.7889L1.01522 12.9389L0.978149 13.0399C2.48833 15.9799 5.59035 18 9.18219 18Z" fill="#34A853"/>
<path d="M3.95913 10.7801C3.76525 10.2201 3.65305 9.62003 3.65305 9.00006C3.65305 8.38002 3.76525 7.78005 3.94893 7.22006L3.94379 7.10079L1.07348 4.91626L0.979564 4.96004C0.357145 6.18005 0 7.55007 0 9.00006C0 10.45 0.357145 11.82 0.979564 13.04L3.95913 10.7801Z" fill="#FBBC05"/>
<path d="M9.18224 3.47996C10.9067 3.47996 12.0699 4.20996 12.7332 4.82L15.3251 2.33999C13.7333 0.89 11.6618 0 9.18224 0C5.59038 0 2.48833 2.01998 0.978149 4.95994L3.94752 7.21996C4.69248 5.04998 6.75369 3.47996 9.18224 3.47996Z" fill="#EB4335"/>
</svg>
